<svg xmlns="http://www.w3.org/2000/svg" width="151" height="32" viewBox="0 0 151 32" fill="none">
<g clip-path="url(#clip0_1617_17366)" shape-rendering="auto">
<path d="M0 0.835449H13.5686C21.3749 0.835449 25.1738 4.21749 25.1738 10.395C25.1738 14.7369 23.2945 17.6584 19.4552 19.0367L26.0512 30.684H17.8264L12.3987 19.9125H7.09695V30.684H0V0.835449ZM13.2341 14.32C16.2816 14.32 17.9088 13.1937 17.9088 10.521C17.9088 7.84838 16.2816 6.68009 13.2341 6.68009H7.09695V14.32H13.2341Z" fill="#FCFBFA"/>
<path d="M35.3167 7.30542C42.6641 7.30542 47.5489 12.1482 47.5489 19.2872C47.5489 26.4261 42.6641 31.2689 35.3167 31.2689C27.9693 31.2689 23.0845 26.4261 23.0845 19.2872C23.0845 12.1482 27.9273 7.30542 35.3167 7.30542ZM35.3167 25.7168C38.6147 25.7168 40.494 23.2542 40.494 19.2888C40.494 15.3234 38.6147 12.8592 35.3167 12.8592C32.0187 12.8592 30.0974 15.3638 30.0974 19.2888C30.0974 23.2138 32.0187 25.7168 35.3167 25.7168Z" fill="#FCFBFA"/>
<path d="M46.7103 0H53.6408V30.684H46.7103V0Z" fill="#FCFBFA"/>
<path d="M55.7689 0H62.6994V30.684H55.7689V0Z" fill="#FCFBFA"/>
<path d="M88.295 0.835449H101.864C109.67 0.835449 113.469 4.21749 113.469 10.3966C113.469 14.7385 111.59 17.66 107.75 19.0384L114.346 30.6856H106.121L100.694 19.9158H95.392V30.6856H88.295V0.835449ZM101.529 14.3184C104.577 14.3184 106.204 13.1921 106.204 10.5194C106.204 7.84676 104.577 6.67848 101.529 6.67848H95.392V14.3184H101.529Z" fill="#FCFBFA"/>
<path d="M123.612 7.30542C130.959 7.30542 135.844 12.1482 135.844 19.2872C135.844 26.4261 130.959 31.2689 123.612 31.2689C116.264 31.2689 111.38 26.4261 111.38 19.2872C111.38 12.1482 116.222 7.30542 123.612 7.30542ZM123.612 25.7168C126.91 25.7168 128.789 23.2542 128.789 19.2872C128.789 15.3202 126.91 12.8576 123.612 12.8576C120.314 12.8576 118.392 15.3622 118.392 19.2872C118.392 23.2122 120.314 25.7168 123.612 25.7168Z" fill="#FCFBFA"/>
<path d="M135.005 0H141.936V30.684H135.005V0Z" fill="#FCFBFA"/>
<path d="M144.064 0H150.994V30.684H144.064V0Z" fill="#FCFBFA"/>
<path d="M61.6556 30.6841L66.2899 17.45C67.0833 15.3623 68.0012 12.7332 68.0012 11.8978C68.0012 11.5229 67.8347 11.3549 67.5422 11.3549C66.7488 11.3549 65.0069 12.7526 62.6283 15.3203H60.678C64.8276 10.6035 68.6265 7.47192 72.7599 7.47192C75.2645 7.47192 76.3504 9.10073 76.3504 10.896C76.3504 12.4828 75.2645 14.6949 74.0122 17.534L72.3414 21.8339H72.8843C76.7253 13.7771 79.7728 7.47192 84.6577 7.47192C87.6212 7.47192 89.124 9.30918 89.124 11.6474C89.124 13.9855 87.0782 18.4939 85.6175 21.5834C84.9081 23.3367 83.6962 25.9673 83.6962 26.7607C83.6962 27.3457 83.9047 27.4701 84.2392 27.4701C85.367 27.4701 87.1623 25.3824 88.4146 22.6693H89.6669C87.9557 26.7607 85.0746 31.353 80.2318 31.353C76.5993 31.353 75.431 29.5578 75.431 27.4701C75.431 25.9673 76.3068 24.8394 77.8936 20.9161C79.3963 17.0751 80.4402 14.4041 80.4402 13.7771C80.4402 13.2762 80.2318 13.0257 79.8132 13.0257C79.0198 13.0257 76.2228 14.863 70.0032 30.6841H61.654H61.6556Z" fill="#FCFBFA"/>
</g>
<defs>
<clipPath id="clip0_1617_17366">
<rect width="151" height="32" fill="white"/>
</clipPath>
</defs>
</svg>
